            <svg
              xmlns="http://www.w3.org/2000/svg"
              viewBox="0 0 238 238"
              width="238"
              height="238"
              preserveAspectRatio="xMidYMid meet"
            >
              <defs>
                <clipPath id="__lottie_element_37">
                  <rect width="238" height="238" x="0" y="0"></rect>
                </clipPath>
              </defs>
              <g clip-path="url(#__lottie_element_37)">
                <g
                  transform="matrix(0.727729856967926,0.6858638525009155,-0.6858638525009155,0.727729856967926,117.45877838134766,43.075355529785156)"
                  opacity="1"
                >
                  <g opacity="1" transform="matrix(1,0,0,1,0,0)">
                    <path
                      stroke-linecap="butt"
                      stroke-linejoin="miter"
                      fill-opacity="0"
                      stroke-miterlimit="4"
                      stroke="#FFD700"
                      stroke-opacity="1"
                      stroke-width="1"
                      d=" M0,-28.150793075561523 C15.536422729492188,-28.150793075561523 28.150793075561523,-15.536422729492188 28.150793075561523,0 C28.150793075561523,15.536422729492188 15.536422729492188,28.150793075561523 0,28.150793075561523 C-15.536422729492188,28.150793075561523 -28.150793075561523,15.536422729492188 -28.150793075561523,0 C-28.150793075561523,-15.536422729492188 -15.536422729492188,-28.150793075561523 0,-28.150793075561523z"
                    ></path>
                  </g>
                </g>
                <g
                  transform="matrix(0.029603734612464905,0.9995616674423218,-0.9995616674423218,0.029603734612464905,171.59693908691406,64.22329711914062)"
                  opacity="1"
                >
                  <g opacity="1" transform="matrix(1,0,0,1,0,0)">
                    <path
                      stroke-linecap="butt"
                      stroke-linejoin="miter"
                      fill-opacity="0"
                      stroke-miterlimit="4"
                      stroke="#FFD700"
                      stroke-opacity="1"
                      stroke-width="1"
                      d=" M0,-28.150793075561523 C15.536422729492188,-28.150793075561523 28.150793075561523,-15.536422729492188 28.150793075561523,0 C28.150793075561523,15.536422729492188 15.536422729492188,28.150793075561523 0,28.150793075561523 C-15.536422729492188,28.150793075561523 -28.150793075561523,15.536422729492188 -28.150793075561523,0 C-28.150793075561523,-15.536422729492188 -15.536422729492188,-28.150793075561523 0,-28.150793075561523z"
                    ></path>
                  </g>
                </g>
                <g
                  transform="matrix(-0.6858638525009155,0.727729856967926,-0.727729856967926,-0.6858638525009155,194.92465209960938,117.45877838134766)"
                  opacity="1"
                >
                  <g opacity="1" transform="matrix(1,0,0,1,0,0)">
                    <path
                      stroke-linecap="butt"
                      stroke-linejoin="miter"
                      fill-opacity="0"
                      stroke-miterlimit="4"
                      stroke="#FFD700"
                      stroke-opacity="1"
                      stroke-width="1"
                      d=" M0,-28.150793075561523 C15.536422729492188,-28.150793075561523 28.150793075561523,-15.536422729492188 28.150793075561523,0 C28.150793075561523,15.536422729492188 15.536422729492188,28.150793075561523 0,28.150793075561523 C-15.536422729492188,28.150793075561523 -28.150793075561523,15.536422729492188 -28.150793075561523,0 C-28.150793075561523,-15.536422729492188 -15.536422729492188,-28.150793075561523 0,-28.150793075561523z"
                    ></path>
                  </g>
                </g>
                <g
                  transform="matrix(-0.9995616674423218,0.029603734612464905,-0.029603734612464905,-0.9995616674423218,173.77670288085938,171.59693908691406)"
                  opacity="1"
                >
                  <g opacity="1" transform="matrix(1,0,0,1,0,0)">
                    <path
                      stroke-linecap="butt"
                      stroke-linejoin="miter"
                      fill-opacity="0"
                      stroke-miterlimit="4"
                      stroke="#FFD700"
                      stroke-opacity="1"
                      stroke-width="1"
                      d=" M0,-28.150793075561523 C15.536422729492188,-28.150793075561523 28.150793075561523,-15.536422729492188 28.150793075561523,0 C28.150793075561523,15.536422729492188 15.536422729492188,28.150793075561523 0,28.150793075561523 C-15.536422729492188,28.150793075561523 -28.150793075561523,15.536422729492188 -28.150793075561523,0 C-28.150793075561523,-15.536422729492188 -15.536422729492188,-28.150793075561523 0,-28.150793075561523z"
                    ></path>
                  </g>
                </g>
                <g
                  transform="matrix(-0.727729856967926,-0.6858638525009155,0.6858638525009155,-0.727729856967926,120.54122161865234,194.9246368408203)"
                  opacity="1"
                >
                  <g opacity="1" transform="matrix(1,0,0,1,0,0)">
                    <path
                      stroke-linecap="butt"
                      stroke-linejoin="miter"
                      fill-opacity="0"
                      stroke-miterlimit="4"
                      stroke="#FFD700"
                      stroke-opacity="1"
                      stroke-width="1"
                      d=" M0,-28.150793075561523 C15.536422729492188,-28.150793075561523 28.150793075561523,-15.536422729492188 28.150793075561523,0 C28.150793075561523,15.536422729492188 15.536422729492188,28.150793075561523 0,28.150793075561523 C-15.536422729492188,28.150793075561523 -28.150793075561523,15.536422729492188 -28.150793075561523,0 C-28.150793075561523,-15.536422729492188 -15.536422729492188,-28.150793075561523 0,-28.150793075561523z"
                    ></path>
                  </g>
                </g>
                <g
                  transform="matrix(-0.029603734612464905,-0.9995616674423218,0.9995616674423218,-0.029603734612464905,66.40306091308594,173.77670288085938)"
                  opacity="1"
                >
                  <g opacity="1" transform="matrix(1,0,0,1,0,0)">
                    <path
                      stroke-linecap="butt"
                      stroke-linejoin="miter"
                      fill-opacity="0"
                      stroke-miterlimit="4"
                      stroke="#FFD700"
                      stroke-opacity="1"
                      stroke-width="1"
                      d=" M0,-28.150793075561523 C15.536422729492188,-28.150793075561523 28.150793075561523,-15.536422729492188 28.150793075561523,0 C28.150793075561523,15.536422729492188 15.536422729492188,28.150793075561523 0,28.150793075561523 C-15.536422729492188,28.150793075561523 -28.150793075561523,15.536422729492188 -28.150793075561523,0 C-28.150793075561523,-15.536422729492188 -15.536422729492188,-28.150793075561523 0,-28.150793075561523z"
                    ></path>
                  </g>
                </g>
                <g
                  transform="matrix(0.6858638525009155,-0.727729856967926,0.727729856967926,0.6858638525009155,43.075355529785156,120.54122161865234)"
                  opacity="1"
                >
                  <g opacity="1" transform="matrix(1,0,0,1,0,0)">
                    <path
                      stroke-linecap="butt"
                      stroke-linejoin="miter"
                      fill-opacity="0"
                      stroke-miterlimit="4"
                      stroke="#FFD700"
                      stroke-opacity="1"
                      stroke-width="1"
                      d=" M0,-28.150793075561523 C15.536422729492188,-28.150793075561523 28.150793075561523,-15.536422729492188 28.150793075561523,0 C28.150793075561523,15.536422729492188 15.536422729492188,28.150793075561523 0,28.150793075561523 C-15.536422729492188,28.150793075561523 -28.150793075561523,15.536422729492188 -28.150793075561523,0 C-28.150793075561523,-15.536422729492188 -15.536422729492188,-28.150793075561523 0,-28.150793075561523z"
                    ></path>
                  </g>
                </g>
                <g
                  transform="matrix(0.9995616674423218,-0.029603734612464905,0.029603734612464905,0.9995616674423218,64.22329711914062,66.40306091308594)"
                  opacity="1"
                >
                  <g opacity="1" transform="matrix(1,0,0,1,0,0)">
                    <path
                      stroke-linecap="butt"
                      stroke-linejoin="miter"
                      fill-opacity="0"
                      stroke-miterlimit="4"
                      stroke="#FFD700"
                      stroke-opacity="1"
                      stroke-width="1"
                      d=" M0,-28.150793075561523 C15.536422729492188,-28.150793075561523 28.150793075561523,-15.536422729492188 28.150793075561523,0 C28.150793075561523,15.536422729492188 15.536422729492188,28.150793075561523 0,28.150793075561523 C-15.536422729492188,28.150793075561523 -28.150793075561523,15.536422729492188 -28.150793075561523,0 C-28.150793075561523,-15.536422729492188 -15.536422729492188,-28.150793075561523 0,-28.150793075561523z"
                    ></path>
                  </g>
                </g>
              </g>
            </svg>